<svg width="36" height="36" viewBox="0 0 36 36" fill="none" xmlns="http://www.w3.org/2000/svg">
<g clip-path="url(#clip0_15_66)">
<path d="M18.5281 3.81006C17.7971 3.81006 17.1071 3.98306 16.4911 4.28206C16.3241 4.25306 16.1531 4.23506 15.9781 4.23506C14.3351 4.23506 13.0031 5.56706 13.0031 7.21006V12.3101H13.0101C13.0881 15.0581 15.3361 17.2641 18.1031 17.2641C20.8701 17.2641 23.1181 15.0581 23.1961 12.3101H23.2031V8.48506C23.2031 5.90306 21.1101 3.81006 18.5281 3.81006V3.81006Z" fill="#292F33"/>
<path d="M15.447 34.8752H14.427C14.427 34.8752 13.043 31.5272 13.247 29.1392L15.778 29.6882C16.338 31.2522 15.447 34.8752 15.447 34.8752V34.8752ZM20.332 34.8752H21.352C21.352 34.8752 22.736 31.5272 22.532 29.1392L20 29.6882C19.441 31.2522 20.332 34.8752 20.332 34.8752Z" fill="#F7DECE"/>
<path d="M13.452 35.1491C13.554 34.9061 13.768 34.4551 13.791 34.1941C13.814 33.9331 13.825 33.8401 14.029 33.7681C14.374 33.6471 15.456 33.6811 15.642 33.7521C15.827 33.8231 15.83 34.0151 15.856 34.1761C15.882 34.3371 15.969 34.6001 16.082 34.8161C16.195 35.0321 16.488 35.5131 16.342 35.8501C16.281 35.9901 15.94 35.9881 14.845 35.9881C13.75 35.9881 13.437 35.9621 13.362 35.8701C13.287 35.7781 13.351 35.3931 13.452 35.1491V35.1491ZM22.327 35.1491C22.225 34.9061 22.011 34.4551 21.988 34.1941C21.965 33.9331 21.954 33.8401 21.75 33.7681C21.405 33.6471 20.323 33.6811 20.137 33.7521C19.952 33.8231 19.949 34.0151 19.923 34.1761C19.897 34.3371 19.81 34.6001 19.697 34.8161C19.584 35.0321 19.291 35.5131 19.437 35.8501C19.498 35.9901 19.839 35.9881 20.934 35.9881C22.029 35.9881 22.342 35.9621 22.417 35.8701C22.491 35.7781 22.428 35.3931 22.327 35.1491V35.1491Z" fill="#DD2E44"/>
<path d="M8.30995 4.15585C8.32095 4.28285 9.12395 5.68085 9.57595 6.78085C10.0279 7.88085 10.3229 9.03085 10.5599 9.28085C11.0359 9.77985 12.4859 10.7549 13.4709 12.2179C14.4559 13.6819 11.4939 14.7979 10.8599 13.8059C10.4089 13.0999 9.55095 11.4378 8.76295 10.0468C8.45895 9.50685 7.86595 8.59285 7.43495 7.53085C7.02895 6.53085 6.79295 5.36285 6.73295 5.21885C6.55395 4.79385 5.85395 4.24185 5.81995 3.81185C5.81995 3.81185 8.27395 3.72785 8.30995 4.15585V4.15585ZM27.4689 4.15585C27.4579 4.28285 26.6549 5.68085 26.2029 6.78085C25.7509 7.88085 25.4559 9.03085 25.2189 9.28085C24.7429 9.77985 23.2929 10.7549 22.3079 12.2179C21.3229 13.6819 24.2849 14.7979 24.9189 13.8059C25.3699 13.0999 26.2279 11.4378 27.0159 10.0468C27.3199 9.50685 27.9129 8.59285 28.3439 7.53085C28.7499 6.53085 28.9859 5.36285 29.0459 5.21885C29.2239 4.79385 29.9239 4.24185 29.9579 3.81285C29.9579 3.81185 27.5049 3.72785 27.4689 4.15585V4.15585Z" fill="#F7DECE"/>
<path d="M36 3.5C36 3.776 35.776 4 35.5 4H0.5C0.224 4 0 3.776 0 3.5C0 3.224 0.224 3 0.5 3H35.5C35.776 3 36 3.224 36 3.5Z" fill="#99AAB5"/>
<path d="M34 0C33.447 0 33 0.448 33 1C33 0.448 32.553 0 32 0C31.447 0 31 0.448 31 1V6C31 6.552 31.447 7 32 7C32.553 7 33 6.552 33 6C33 6.552 33.447 7 34 7C34.553 7 35 6.552 35 6V1C35 0.448 34.553 0 34 0ZM4 0C3.447 0 3 0.448 3 1C3 0.448 2.553 0 2 0C1.447 0 1 0.448 1 1V6C1 6.552 1.447 7 2 7C2.553 7 3 6.552 3 6C3 6.552 3.447 7 4 7C4.553 7 5 6.552 5 6V1C5 0.448 4.553 0 4 0Z" fill="#292F33"/>
<path d="M24.918 13.8058C24.293 13.2228 22.307 12.2178 22.307 12.2178C21.598 12.6188 21.07 13.4058 20.842 13.7888L19.444 14.1828H16.554L14.927 13.7768C14.696 13.3898 14.172 12.6148 13.469 12.2178C13.469 12.2178 11.483 13.2218 10.858 13.8058C11.264 14.8448 12.401 16.2338 12.401 16.2338L12.409 16.2328C12.809 17.0538 13.263 17.5948 13.354 17.7798C13.74 18.5608 14 22.4998 14 22.4998L18 23.9998L21.779 22.4998C21.779 22.4998 22.039 18.5608 22.422 17.7808C22.513 17.5958 22.967 17.0538 23.367 16.2338L23.375 16.2348C23.375 16.2338 24.513 14.8448 24.918 13.8058V13.8058Z" fill="#DD2E44"/>
<path d="M16.4709 11.4121V14.4711C16.4709 15.3151 17.1549 16.0001 17.9999 16.0001C18.8449 16.0001 19.5289 15.3151 19.5289 14.4711V11.4121H16.4709V11.4121Z" fill="#F7DECE"/>
<path d="M18.375 3.35303C17.485 3.35303 16.663 3.63703 15.989 4.11603C14.604 4.18803 13.499 5.32503 13.499 6.72803C13.499 7.88403 13.504 9.34103 15.028 9.88403C15.777 10.924 16.995 11.603 18.375 11.603C20.653 11.603 22.5 9.75703 22.5 7.47803C22.5 5.20003 20.653 3.35303 18.375 3.35303V3.35303Z" fill="#292F33"/>
<path d="M21.75 5.60205H14.25V10.1021C14.25 12.1741 15.929 13.8521 18 13.8521C20.072 13.8521 21.75 12.1741 21.75 10.1021V5.60205Z" fill="#F7DECE"/>
<path d="M18 4L14.076 5.533V8.672C15.907 8.672 16.312 6.779 16.403 5.935C16.434 6.779 17.042 8.672 21.923 8.672V5.533L18 4Z" fill="#292F33"/>
<path d="M19.5 12.353H16.5C16.5 12.353 16.5 13.103 18 13.103C19.5 13.103 19.5 12.353 19.5 12.353Z" fill="#C1694F"/>
<path d="M16.125 10.103C16.3321 10.103 16.5 9.93513 16.5 9.72803C16.5 9.52092 16.3321 9.35303 16.125 9.35303C15.9179 9.35303 15.75 9.52092 15.75 9.72803C15.75 9.93513 15.9179 10.103 16.125 10.103Z" fill="#662113"/>
<path d="M20.25 9.72803C20.25 9.93503 20.082 10.103 19.876 10.103C19.668 10.103 19.501 9.93503 19.501 9.72803C19.501 9.52103 19.669 9.35303 19.876 9.35303C20.082 9.35303 20.25 9.52103 20.25 9.72803Z" fill="#662113"/>
<path d="M17.25 10.853H18.75C18.75 10.853 18.75 11.603 18 11.603C17.25 11.603 17.25 10.853 17.25 10.853Z" fill="#C1694F"/>
<path d="M27.096 4.363C26.766 4.206 26.62 3.935 26.719 3.644L26.722 3.634C26.821 3.343 27.013 3.288 27.46 3.295C27.46 3.295 28.981 3.371 29.897 4.007C29.897 4.007 29.698 4.311 29.45 4.567L29.447 4.577C29.346 4.867 27.833 4.714 27.096 4.363V4.363Z" fill="#F7DECE"/>
<path d="M27.843 3.47026C27.706 3.43726 27.622 3.29726 27.655 3.16026L27.742 2.80326C27.775 2.66626 27.915 2.58226 28.052 2.61526C28.189 2.64826 28.273 2.78826 28.24 2.92526L28.153 3.28226C28.119 3.41926 27.98 3.50326 27.843 3.47026ZM27.398 2.60026C27.235 2.54526 27.056 2.63426 27.001 2.79726L26.722 3.63426C26.667 3.79826 26.89 3.56626 27.054 3.62126C27.217 3.67626 27.396 3.58826 27.451 3.42526L27.595 2.99826C27.65 2.83426 27.561 2.65626 27.398 2.60026Z" fill="#F7DECE"/>
<path d="M28.384 3.39923C28.247 3.36623 28.163 3.22623 28.196 3.08923L28.278 2.75523C28.311 2.61823 28.451 2.53423 28.588 2.56723C28.725 2.60023 28.809 2.74023 28.776 2.87723L28.694 3.21123C28.66 3.34823 28.521 3.43223 28.384 3.39923Z" fill="#F7DECE"/>
<path d="M28.9 3.42426C28.763 3.39126 28.679 3.25126 28.712 3.11426L28.78 2.83726C28.813 2.70026 28.953 2.61626 29.09 2.64926C29.227 2.68226 29.311 2.82226 29.278 2.95926L29.21 3.23626C29.176 3.37326 29.037 3.45726 28.9 3.42426Z" fill="#F7DECE"/>
<path d="M29.419 3.44745C29.282 3.41445 29.198 3.27445 29.231 3.13745L29.271 2.97544C29.304 2.83844 29.444 2.75444 29.581 2.78744C29.718 2.82044 29.802 2.96044 29.769 3.09744L29.729 3.25945C29.695 3.39645 29.555 3.48145 29.419 3.44745Z" fill="#F7DECE"/>
<path d="M8.68296 4.36299C9.01296 4.20599 9.15896 3.93499 9.05996 3.64399L9.05696 3.63399C8.95696 3.34399 8.76496 3.28799 8.31896 3.29499C8.31896 3.29499 6.79796 3.37099 5.88196 4.00699C5.88196 4.00699 6.08096 4.31099 6.32896 4.56699L6.33196 4.57699C6.43196 4.86699 7.94596 4.71399 8.68296 4.36299V4.36299Z" fill="#F7DECE"/>
<path d="M7.93599 3.47026C8.07299 3.43726 8.15699 3.29726 8.12399 3.16026L8.03599 2.80326C8.00299 2.66626 7.86299 2.58226 7.72599 2.61526C7.58999 2.64926 7.50499 2.78826 7.53899 2.92526L7.62599 3.28226C7.65999 3.41926 7.79899 3.50326 7.93599 3.47026V3.47026ZM8.38099 2.60026C8.54399 2.54526 8.72299 2.63426 8.77799 2.79726L9.05699 3.63426C9.11199 3.79826 8.88899 3.56626 8.72499 3.62126C8.56199 3.67626 8.38299 3.58826 8.32799 3.42526L8.18399 2.99826C8.12899 2.83426 8.21699 2.65626 8.38099 2.60026V2.60026Z" fill="#F7DECE"/>
<path d="M7.3949 3.39923C7.5319 3.36623 7.6159 3.22623 7.5829 3.08923L7.5009 2.75523C7.4679 2.61823 7.3279 2.53423 7.1909 2.56723C7.0539 2.60123 6.9699 2.74023 7.0029 2.87723L7.0849 3.21123C7.1189 3.34823 7.2579 3.43223 7.3949 3.39923Z" fill="#F7DECE"/>
<path d="M6.87892 3.42426C7.01592 3.39026 7.09992 3.25126 7.06692 3.11426L6.99892 2.83726C6.96592 2.70026 6.82592 2.61626 6.68992 2.64926C6.55292 2.68226 6.46892 2.82226 6.50192 2.95926L6.56992 3.23626C6.60292 3.37326 6.74192 3.45726 6.87892 3.42426Z" fill="#F7DECE"/>
<path d="M6.35996 3.44745C6.49696 3.41445 6.58096 3.27445 6.54796 3.13745L6.50796 2.97544C6.47496 2.83844 6.33496 2.75444 6.19796 2.78744C6.06196 2.82144 5.97796 2.96044 6.01096 3.09744L6.05096 3.25945C6.08396 3.39645 6.22296 3.48145 6.35996 3.44745Z" fill="#F7DECE"/>
<path d="M21.7791 24.5L18.0001 23L14.0001 24.5C14.0001 24.5 13.0601 26.266 13.0601 29.688H15.7791C16.6961 28.709 17.0291 26.084 17.0291 26.084H18.7501C18.7501 26.084 19.0831 28.709 20.0001 29.688H22.7191C22.7191 26.266 21.7791 24.5 21.7791 24.5Z" fill="#DD2E44"/>
<path d="M14 22.5H21.779V24.5H14V22.5Z" fill="#C1694F"/>
<path d="M19 22.3989H19.65V24.6079H19V22.3989Z" fill="#14171A"/>
<path d="M18.5 23.625C18.5922 23.625 18.667 23.5502 18.667 23.458C18.667 23.3658 18.5922 23.291 18.5 23.291C18.4078 23.291 18.333 23.3658 18.333 23.458C18.333 23.5502 18.4078 23.625 18.5 23.625Z" fill="#14171A"/>
<path d="M18.021 23.458C18.021 23.55 17.946 23.625 17.854 23.625C17.762 23.625 17.687 23.55 17.687 23.458C17.687 23.366 17.762 23.291 17.854 23.291C17.946 23.292 18.021 23.366 18.021 23.458Z" fill="#14171A"/>
<path d="M17.208 23.625C17.3002 23.625 17.375 23.5502 17.375 23.458C17.375 23.3658 17.3002 23.291 17.208 23.291C17.1158 23.291 17.041 23.3658 17.041 23.458C17.041 23.5502 17.1158 23.625 17.208 23.625Z" fill="#14171A"/>
<path d="M16.562 23.625C16.6543 23.625 16.729 23.5502 16.729 23.458C16.729 23.3658 16.6543 23.291 16.562 23.291C16.4698 23.291 16.395 23.3658 16.395 23.458C16.395 23.5502 16.4698 23.625 16.562 23.625Z" fill="#14171A"/>
<path d="M15.917 23.625C16.0092 23.625 16.084 23.5502 16.084 23.458C16.084 23.3658 16.0092 23.291 15.917 23.291C15.8248 23.291 15.75 23.3658 15.75 23.458C15.75 23.5502 15.8248 23.625 15.917 23.625Z" fill="#14171A"/>
<path d="M15.271 23.625C15.3632 23.625 15.438 23.5502 15.438 23.458C15.438 23.3658 15.3632 23.291 15.271 23.291C15.1788 23.291 15.104 23.3658 15.104 23.458C15.104 23.5502 15.1788 23.625 15.271 23.625Z" fill="#14171A"/>
<path d="M14.625 23.625C14.7172 23.625 14.792 23.5502 14.792 23.458C14.792 23.3658 14.7172 23.291 14.625 23.291C14.5328 23.291 14.458 23.3658 14.458 23.458C14.458 23.5502 14.5328 23.625 14.625 23.625Z" fill="#14171A"/>
<path d="M17.208 23.625C17.3002 23.625 17.375 23.5502 17.375 23.458C17.375 23.3658 17.3002 23.291 17.208 23.291C17.1158 23.291 17.041 23.3658 17.041 23.458C17.041 23.5502 17.1158 23.625 17.208 23.625Z" fill="#14171A"/>
<path d="M16.318 23.6061C16.3998 23.6061 16.466 23.5398 16.466 23.4581C16.466 23.3763 16.3998 23.3101 16.318 23.3101C16.2363 23.3101 16.17 23.3763 16.17 23.4581C16.17 23.5398 16.2363 23.6061 16.318 23.6061Z" fill="#657786"/>
<path d="M16.553 23.6061C16.6348 23.6061 16.701 23.5398 16.701 23.4581C16.701 23.3763 16.6348 23.3101 16.553 23.3101C16.4713 23.3101 16.405 23.3763 16.405 23.4581C16.405 23.5398 16.4713 23.6061 16.553 23.6061Z" fill="#657786"/>
<path d="M16.318 23.3101H16.553V23.6071H16.318V23.3101Z" fill="#657786"/>
<path d="M16.7289 24.8459H15.9709V22.1479H16.7289V22.4979H16.3209V24.4959H16.7289V24.8459Z" fill="#657786"/>
</g>
<defs>
<clipPath id="clip0_15_66">
<rect width="36" height="36" fill="white"/>
</clipPath>
</defs>
</svg>
